<svg width="21" height="16" viewBox="0 0 21 16" fill="none" xmlns="http://www.w3.org/2000/svg">
<path d="M19.6368 7.18494L18.6068 5.75494C18.3763 5.43115 18.0719 5.167 17.7188 4.98439C17.3658 4.80178 16.9743 4.70598 16.5768 4.70494H12.1968V2.56494C12.1968 1.9019 11.9334 1.26602 11.4646 0.797174C10.9957 0.328333 10.3598 0.0649414 9.69681 0.0649414H2.72681C2.06433 0.0667886 1.42952 0.330774 0.96108 0.799215C0.492639 1.26766 0.228654 1.90247 0.226807 2.56494V12.5049C0.226807 12.9028 0.384842 13.2843 0.666147 13.5656C0.947451 13.8469 1.32898 14.0049 1.72681 14.0049H2.94681C3.02232 14.54 3.28851 15.0297 3.69641 15.3841C4.10431 15.7385 4.62647 15.9336 5.16681 15.9336C5.70714 15.9336 6.2293 15.7385 6.6372 15.3841C7.0451 15.0297 7.3113 14.54 7.38681 14.0049H12.9468C13.0223 14.54 13.2885 15.0297 13.6964 15.3841C14.1043 15.7385 14.6265 15.9336 15.1668 15.9336C15.7071 15.9336 16.2293 15.7385 16.6372 15.3841C17.0451 15.0297 17.3113 14.54 17.3868 14.0049H18.6068C19.0046 14.0049 19.3862 13.8469 19.6675 13.5656C19.9488 13.2843 20.1068 12.9028 20.1068 12.5049V8.63494C20.1044 8.11455 19.9401 7.60781 19.6368 7.18494ZM5.16681 14.9349C4.91958 14.9349 4.67791 14.8616 4.47234 14.7243C4.26678 14.5869 4.10657 14.3917 4.01196 14.1633C3.91735 13.9349 3.89259 13.6836 3.94082 13.4411C3.98906 13.1986 4.10811 12.9759 4.28292 12.8011C4.45774 12.6262 4.68047 12.5072 4.92294 12.459C5.16542 12.4107 5.41675 12.4355 5.64516 12.5301C5.87357 12.6247 6.06879 12.7849 6.20614 12.9905C6.3435 13.196 6.41681 13.4377 6.41681 13.6849C6.41681 14.0165 6.28511 14.3344 6.05069 14.5688C5.81627 14.8032 5.49833 14.9349 5.16681 14.9349ZM11.1968 13.0049H7.31681C7.1712 12.5491 6.88447 12.1513 6.49801 11.869C6.11155 11.5867 5.64537 11.4346 5.16681 11.4346C4.68824 11.4346 4.22207 11.5867 3.83561 11.869C3.44915 12.1513 3.16241 12.5491 3.01681 13.0049H1.72681C1.5942 13.0049 1.46702 12.9523 1.37325 12.8585C1.27949 12.7647 1.22681 12.6375 1.22681 12.5049V2.56494C1.22681 2.16712 1.38484 1.78559 1.66615 1.50428C1.94745 1.22298 2.32898 1.06494 2.72681 1.06494H9.69681C10.0946 1.06494 10.4762 1.22298 10.7575 1.50428C11.0388 1.78559 11.1968 2.16712 11.1968 2.56494V13.0049ZM15.1668 14.9349C14.9196 14.9349 14.6779 14.8616 14.4723 14.7243C14.2668 14.5869 14.1066 14.3917 14.012 14.1633C13.9173 13.9349 13.8926 13.6836 13.9408 13.4411C13.9891 13.1986 14.1081 12.9759 14.2829 12.8011C14.4577 12.6262 14.6805 12.5072 14.9229 12.459C15.1654 12.4107 15.4168 12.4355 15.6452 12.5301C15.8736 12.6247 16.0688 12.7849 16.2061 12.9905C16.3435 13.196 16.4168 13.4377 16.4168 13.6849C16.4168 14.0165 16.2851 14.3344 16.0507 14.5688C15.8163 14.8032 15.4983 14.9349 15.1668 14.9349ZM19.1068 12.5049C19.1068 12.6375 19.0541 12.7647 18.9604 12.8585C18.8666 12.9523 18.7394 13.0049 18.6068 13.0049H17.3168C17.1712 12.5491 16.8845 12.1513 16.498 11.869C16.1115 11.5867 15.6454 11.4346 15.1668 11.4346C14.6882 11.4346 14.2221 11.5867 13.8356 11.869C13.4491 12.1513 13.1624 12.5491 13.0168 13.0049H12.1968V5.70494H16.5768C16.8154 5.70654 17.0502 5.76443 17.2622 5.8739C17.4742 5.98337 17.6574 6.14134 17.7968 6.33494L18.8268 7.76494C19.0068 8.01955 19.1045 8.32316 19.1068 8.63494V12.5049Z" fill="#797979"/>
<path d="M16.1958 8.20508H14.1958C14.0632 8.20508 13.936 8.1524 13.8422 8.05863C13.7485 7.96486 13.6958 7.83769 13.6958 7.70508C13.6958 7.57247 13.7485 7.44529 13.8422 7.35152C13.936 7.25776 14.0632 7.20508 14.1958 7.20508H16.1958C16.3284 7.20508 16.4556 7.25776 16.5494 7.35152C16.6431 7.44529 16.6958 7.57247 16.6958 7.70508C16.6958 7.83769 16.6431 7.96486 16.5494 8.05863C16.4556 8.1524 16.3284 8.20508 16.1958 8.20508Z" fill="#797979"/>
</svg>
