<svg width="24" height="24" viewBox="0 0 24 24" fill="none" xmlns="http://www.w3.org/2000/svg">
<g clip-path="url(#clip0_863_244)">
<path fill-rule="evenodd" clip-rule="evenodd" d="M6.60741 3.25026C5.7645 4.09316 5.76455 5.44973 5.7645 8.16299L5.7645 15.8371C5.7645 18.5504 5.7645 19.9069 6.60744 20.7498C7.45032 21.5927 8.8069 21.5928 11.5201 21.5927L12.4794 21.5927C15.1926 21.5927 16.5492 21.5927 17.3921 20.7498C18.235 19.907 18.235 18.5503 18.235 15.8371L18.235 8.163C18.235 5.44974 18.235 4.09318 17.3921 3.25026C16.5492 2.40737 15.1926 2.40737 12.4794 2.40737L11.5201 2.40737C8.80691 2.40737 7.45029 2.40737 6.60741 3.25026ZM14.3976 6.03559C14.8118 6.03559 15.1476 5.69979 15.1476 5.28559C15.1476 4.87137 14.8118 4.53559 14.3976 4.53559L9.60124 4.53558C9.18703 4.53559 8.85124 4.87137 8.85124 5.28558C8.85124 5.6998 9.18703 6.03559 9.60124 6.03558L14.3976 6.03559ZM11.9992 18.7154C12.7939 18.7154 13.4381 18.0712 13.4382 17.2765C13.4382 16.4818 12.7939 15.8376 11.9993 15.8376C11.2046 15.8376 10.5604 16.4818 10.5603 17.2765C10.5603 18.0712 11.2046 18.7154 11.9992 18.7154Z" fill="#4E4E4E"/>
</g>
<defs>
<clipPath id="clip0_863_244">
<rect width="24" height="24" fill="white"/>
</clipPath>
</defs>
</svg>
